<svg width="50" height="50" viewBox="0 0 50 50" version="1.1" xmlns="http://www.w3.org/2000/svg" xmlns:xlink="http://www.w3.org/1999/xlink">
<title>Group 2</title>
<desc>Created using Figma</desc>
<g id="Canvas" transform="translate(-3703 -1081)">
<g id="Group 2">
<g id="Group">
<g id="if_pdf_272699">
<g id="Group">
<g id="Vector">
<use xlink:href="#path0_fill" transform="translate(3713.23 1081)" fill="#434440"/>
</g>
<g id="Vector">
<use xlink:href="#path1_fill" transform="translate(3703 1091.3)" fill="#EA4C3A"/>
</g>
<g id="Vector">
<use xlink:href="#path2_stroke" transform="translate(3708.91 1095.97)" fill="#EA4C3A"/>
</g>
</g>
</g>
</g>
</g>
</g>
<defs>
<path id="path0_fill" d="M 37.6784 12.7051L 28.5683 2.10098L 26.7624 4.38297e-11L 5.23353 4.38297e-11C 2.34035 4.38297e-11 1.53375e-07 2.34806 1.53375e-07 5.25077L 1.53375e-07 11.9252L 3.24332 11.9252L 3.24164 6.52985C 3.24834 4.89781 4.55505 3.57839 6.17671 3.57839L 24.5946 3.56158L 24.5946 12.3151C 24.5963 15.5742 27.2197 18.2147 30.4697 18.2147L 36.8475 18.2147L 36.5309 43.4601C 36.5242 45.0854 35.2174 46.3964 33.5958 46.4082L 5.94385 46.3947C 4.46459 46.3947 3.27347 44.9392 3.26342 43.1424L 3.26342 41.0061L 0.0167524 41.0061L 0.0167524 44.1929C 0.0167524 47.3981 2.15607 50 4.78288 50L 34.5406 49.9916C 37.4322 49.9916 39.7742 47.6318 39.7742 44.7375L 39.7742 15.1489L 37.6784 12.7051Z"/>
<path id="path1_fill" d="M 33.7482 32.3366L 0 32.3366L 0 3.14173e-07L 33.7482 3.14173e-07L 33.7482 32.3366ZM 3.23997 29.0826L 30.5033 29.0826L 30.5033 3.254L 3.23997 3.254"/>
<path id="path2_stroke" d="M 11.6199 2.28609L 11.247 2.24607L 11.247 2.24625L 11.6199 2.28609ZM 9.89101 9.3L 9.54052 9.16666L 9.5403 9.16725L 9.89101 9.3ZM 5.99602 16.6787L 6.30693 16.8883L 6.30722 16.8879L 5.99602 16.6787ZM 2.64883 20.689L 2.89212 20.9744L 2.89248 20.9741L 2.64883 20.689ZM 0.102429 21.4991L -0.228705 21.6754L -0.224446 21.6829L 0.102429 21.4991ZM 0.0504963 20.573L -0.315299 20.4905L -0.315448 20.4911L 0.0504963 20.573ZM 0.958491 19.1225L 1.22111 19.3902L 1.22186 19.3895L 0.958491 19.1225ZM 3.94884 17.1257L 3.78478 16.7885L 3.78445 16.7887L 3.94884 17.1257ZM 12.171 14.5525L 12.2376 14.9215L 12.2382 14.9214L 12.171 14.5525ZM 14.8582 14.1726L 14.8874 14.5465L 14.8882 14.5464L 14.8582 14.1726ZM 17.3158 14.1726L 17.2845 14.5463L 17.2852 14.5463L 17.3158 14.1726ZM 19.574 14.5357L 19.4843 14.8998L 19.4866 14.9003L 19.574 14.5357ZM 21.3197 15.2113L 21.519 14.8937L 21.5184 14.8933L 21.3197 15.2113ZM 22.4605 16.4316L 22.8035 16.2798L 22.8024 16.2774L 22.4605 16.4316ZM 22.4957 17.8182L 22.1563 17.6588L 22.1552 17.6612L 22.4957 17.8182ZM 21.5525 18.5595L 21.4398 18.2018L 21.4362 18.2029L 21.5525 18.5595ZM 20.1269 18.5595L 20.2353 18.2005L 20.234 18.2001L 20.1269 18.5595ZM 18.259 17.5527L 18.476 17.2468L 18.4751 17.2462L 18.259 17.5527ZM 15.9454 15.5576L 15.6803 15.8228L 15.6805 15.823L 15.9454 15.5576ZM 12.9182 12.1573L 12.6233 12.389L 12.624 12.3899L 12.9182 12.1573ZM 10.6432 8.7403L 10.9749 8.56535L 10.9744 8.56448L 10.6432 8.7403ZM 9.59281 6.0813L 9.95396 5.98033L 9.95391 5.98014L 9.59281 6.0813ZM 9.11201 3.69122L 8.73875 3.72734L 8.73876 3.72742L 9.11201 3.69122ZM 9.14719 1.76L 9.51886 1.80987L 9.51892 1.8094L 9.14719 1.76ZM 9.50402 0.570005L 9.81484 0.779806L 9.81514 0.779367L 9.50402 0.570005ZM 10.5025 0.0254318L 10.5541 0.396868L 10.5557 0.396638L 10.5025 0.0254318ZM 10.8744 0.0254318L 10.9888 -0.33175L 10.9832 -0.333448L 10.8744 0.0254318ZM 11.2142 0.607654C 11.3114 0.65276 11.334 0.681242 11.3403 0.690339C 11.3461 0.698665 11.3657 0.729936 11.3723 0.838248C 11.3875 1.08801 11.3295 1.47722 11.247 2.24607L 11.9927 2.3261C 12.0677 1.62763 12.1412 1.12602 12.1209 0.792554C 12.1097 0.609249 12.0697 0.425801 11.9565 0.262686C 11.8438 0.100344 11.688 0.000665442 11.5297 -0.0727242L 11.2142 0.607654ZM 11.247 2.24625C 11.0865 3.75195 10.5656 6.47647 9.54052 9.16666L 10.2415 9.43335C 11.2871 6.68116 11.8283 3.86245 11.9928 2.32592L 11.247 2.24625ZM 9.5403 9.16725C 8.51994 11.8661 7.01104 14.4974 5.68482 16.4694L 6.30722 16.8879C 7.64801 14.8933 9.19815 12.1863 10.2417 9.43276L 9.5403 9.16725ZM 5.6851 16.469C 4.36447 18.4288 3.25727 19.6768 2.40518 20.4039L 2.89248 20.9741C 3.78267 20.212 4.95719 18.8884 6.30693 16.8883L 5.6851 16.469ZM 2.40555 20.4036C 1.58136 21.1063 1.03394 21.2717 0.71726 21.3262L 0.844565 22.0654C 1.30856 21.9854 1.97738 21.7542 2.89212 20.9744L 2.40555 20.4036ZM 0.71726 21.3262C 0.542631 21.3563 0.470199 21.3451 0.447224 21.3381C 0.440403 21.336 0.441814 21.3355 0.444594 21.3379C 0.446181 21.3392 0.440362 21.335 0.429305 21.3154L -0.224446 21.6829C -0.130572 21.8499 0.0120895 21.9888 0.226291 22.0548C 0.417331 22.1137 0.628857 22.1025 0.844565 22.0654L 0.71726 21.3262ZM 0.433475 21.323C 0.384911 21.2317 0.338962 21.0011 0.416441 20.6549L -0.315448 20.4911C -0.415547 20.9383 -0.391136 21.3699 -0.228616 21.6753L 0.433475 21.323ZM 0.416291 20.6556C 0.486792 20.3433 0.659403 19.9413 1.22111 19.3902L 0.695873 18.8548C 0.0480358 19.4904 -0.208221 20.0161 -0.315298 20.4905L 0.416291 20.6556ZM 1.22186 19.3895C 1.80407 18.8136 2.75308 18.1246 4.11323 17.4628L 3.78445 16.7887C 2.36701 17.4816 1.3191 18.2415 0.695124 18.8556L 1.22186 19.3895ZM 4.1129 17.463C 5.48222 16.7961 7.23216 16.1799 8.68199 15.7525L 8.46986 15.0332C 7.00138 15.4663 5.19306 16.1041 3.78478 16.7885L 4.1129 17.463ZM 8.68199 15.7525C 10.1254 15.3265 11.2447 15.1006 12.2376 14.9215L 12.1045 14.1834C 11.1038 14.364 9.94482 14.5986 8.46986 15.0332L 8.68199 15.7525ZM 12.2382 14.9214C 13.2303 14.7407 14.0641 14.6106 14.8874 14.5465L 14.8289 13.7987C 13.977 13.8657 13.1054 14.0012 12.1039 14.1835L 12.2382 14.9214ZM 14.8882 14.5464C 15.7108 14.4801 16.4977 14.48 17.2845 14.5463L 17.3471 13.7989C 16.529 13.7307 15.6808 13.7307 14.8282 13.7988L 14.8882 14.5464ZM 17.2852 14.5463C 18.0702 14.6103 18.823 14.7365 19.4843 14.8998L 19.6638 14.1715C 18.9748 14.002 18.1629 13.866 17.3464 13.7988L 17.2852 14.5463ZM 19.4866 14.9003C 20.1476 15.0582 20.659 15.2381 21.1209 15.5293L 21.5184 14.8933C 20.9852 14.5627 20.3608 14.3392 19.6615 14.171L 19.4866 14.9003ZM 21.1204 15.529C 21.5789 15.8167 21.9415 16.1929 22.1187 16.5858L 22.8024 16.2774C 22.5474 15.7122 22.0623 15.2346 21.519 14.8937L 21.1204 15.529ZM 22.1176 16.5834C 22.2932 16.98 22.281 17.3932 22.1563 17.6588L 22.8352 17.9776C 23.0656 17.4869 23.0534 16.8445 22.8034 16.2798L 22.1176 16.5834ZM 22.1552 17.6612C 22.0402 17.9105 21.7951 18.0898 21.4398 18.2018L 21.6653 18.9171C 22.1309 18.7703 22.5994 18.489 22.8363 17.9752L 22.1552 17.6612ZM 21.4362 18.2029C 21.0688 18.3258 20.72 18.3532 20.2353 18.2005L 20.0185 18.9184C 20.6361 19.0985 21.212 19.062 21.6689 18.916L 21.4362 18.2029ZM 20.234 18.2001C 19.721 18.0497 19.1354 17.7153 18.476 17.2468L 18.042 17.8585C 18.7328 18.3481 19.4271 18.7397 20.0198 18.9188L 20.234 18.2001ZM 18.4751 17.2462C 17.8107 16.778 17.1231 16.2035 16.2103 15.2921L 15.6805 15.823C 16.6173 16.7572 17.3537 17.3727 18.0428 17.8591L 18.4751 17.2462ZM 16.2105 15.2924C 15.2906 14.3729 14.1677 13.1336 13.2124 11.9248L 12.624 12.3899C 13.5953 13.6182 14.7474 14.89 15.6803 15.8228L 16.2105 15.2924ZM 13.2131 11.9257C 12.2625 10.7161 11.497 9.55613 10.9749 8.56535L 10.3115 8.91526C 10.8515 9.93806 11.6541 11.1547 12.6233 12.389L 13.2131 11.9257ZM 10.9744 8.56448C 10.4527 7.58398 10.182 6.79655 9.95396 5.98033L 9.23166 6.18227C 9.46602 7.01995 9.7649 7.88304 10.312 8.91612L 10.9744 8.56448ZM 9.95391 5.98014C 9.72561 5.16582 9.55457 4.37634 9.48526 3.65503L 8.73876 3.72742C 8.81353 4.49192 8.99764 5.34625 9.23171 6.18246L 9.95391 5.98014ZM 9.48527 3.65511C 9.4149 2.93898 9.45016 2.31979 9.51886 1.80987L 8.77552 1.71013C 8.7035 2.24903 8.66505 2.9543 8.73875 3.72734L 9.48527 3.65511ZM 9.51892 1.8094C 9.58781 1.29107 9.68671 0.969633 9.81484 0.779806L 9.1932 0.360205C 8.96283 0.701506 8.8473 1.17003 8.77546 1.7106L 9.51892 1.8094ZM 9.81514 0.779367C 9.93225 0.605338 10.1032 0.511532 10.2432 0.458496L 9.97769 -0.242917C 9.7795 -0.167173 9.43162 0.0265974 9.19291 0.360643L 9.81514 0.779367ZM 10.2432 0.458496C 10.3697 0.410627 10.4138 0.416353 10.5541 0.396865L 10.4509 -0.346001C 10.3677 -0.333548 10.2206 -0.328318 9.97769 -0.242917L 10.2432 0.458496ZM 10.5557 0.396638C 10.7053 0.3752 10.7051 0.365962 10.7656 0.384311L 10.9832 -0.333448C 10.7109 -0.398302 10.5242 -0.355214 10.4493 -0.345775L 10.5557 0.396638ZM 10.76 0.38257C 10.8642 0.415921 11.0245 0.510268 11.2476 0.64741L 11.6404 0.00853427C 11.448 -0.109803 11.1995 -0.26421 10.9887 -0.331707L 10.76 0.38257Z"/>
</defs>
</svg>
