<svg width="50" height="50" viewBox="0 0 50 50" version="1.1" xmlns="http://www.w3.org/2000/svg" xmlns:xlink="http://www.w3.org/1999/xlink">
<title>if_word_272702</title>
<desc>Created using Figma</desc>
<g id="Canvas" transform="translate(-2157 -995)">
<g id="if_word_272702">
<g id="Group">
<g id="Vector">
<use xlink:href="#path0_fill" transform="translate(2167.23 995)" fill="#434440"/>
</g>
<g id="Vector">
<use xlink:href="#path1_fill" transform="translate(2157 1005.3)" fill="#2372BA"/>
</g>
<g id="Vector">
<use xlink:href="#path2_fill" transform="translate(2161.98 1014.97)" fill="#2372BA"/>
</g>
</g>
</g>
</g>
<defs>
<path id="path0_fill" d="M 37.677 12.7035L 28.5628 2.1005L 26.7614 0L 5.22906 0C 2.33905 0 0 2.34841 0 5.24958L 0 11.9229L 3.24229 11.9229L 3.24062 6.52764C 3.24396 4.89615 4.55122 3.57621 6.17403 3.57621L 24.5893 3.55946L 24.5893 12.3116C 24.591 15.5712 27.2172 18.2111 30.4678 18.2111L 36.8422 18.2111L 36.5283 43.4606C 36.525 45.0854 35.2127 46.3953 33.5932 46.407L 5.94364 46.3953C 4.46441 46.3953 3.27234 44.9363 3.26566 43.1424L 3.26566 41.0084L 0.016696 41.0084L 0.016696 44.1926C 0.016696 47.3987 2.1554 50 4.78162 50L 34.5399 49.9899C 37.4282 49.9899 39.7739 47.6298 39.7739 44.7387L 39.7739 15.1474L 37.677 12.7035Z"/>
<path id="path1_fill" d="M 33.7468 32.335L 0 32.335L 0 -2.7476e-07L 33.7468 -2.7476e-07L 33.7468 32.335ZM 3.24229 29.0821L 30.4995 29.0821L 30.4995 3.25461L 3.24229 3.25461"/>
<path id="path2_fill" d="M 23.4857 -1.15016e-07L 18.5538 15.0302L 14.4601 15.0302L 11.6418 6.31826L 8.68672 15.0302L 4.60632 15.0302L -1.75144e-07 -1.15016e-07L 4.19561 -1.15016e-07L 6.87859 9.71357L 10.1476 -1.15016e-07L 13.3381 -1.15016e-07L 16.3801 9.71357L 19.2968 -1.15016e-07L 23.4857 -1.15016e-07Z"/>
</defs>
</svg>
